<?xml version="1.0" encoding="UTF-8"?>
<svg xmlns="http://www.w3.org/2000/svg" xmlns:xlink="http://www.w3.org/1999/xlink" width="16pt" height="16pt" viewBox="0 0 16 16" version="1.1">
<g id="surface1">
<path style=" stroke:none;fill-rule:nonzero;fill:rgb(0%,0%,0%);fill-opacity:1;" d="M 13.070312 5.539062 C 12.898438 5.480469 12.730469 5.429688 12.5625 5.378906 C 12.589844 5.261719 12.617188 5.148438 12.640625 5.03125 C 13.023438 3.167969 12.773438 1.671875 11.917969 1.179688 C 11.097656 0.707031 9.757812 1.195312 8.398438 2.378906 C 8.265625 2.492188 8.132812 2.617188 8.007812 2.738281 C 7.925781 2.65625 7.835938 2.574219 7.75 2.496094 C 6.328125 1.234375 4.902344 0.703125 4.050781 1.199219 C 3.230469 1.675781 2.988281 3.085938 3.332031 4.847656 C 3.367188 5.023438 3.402344 5.195312 3.445312 5.367188 C 3.246094 5.425781 3.050781 5.488281 2.867188 5.554688 C 1.195312 6.132812 0 7.042969 0 7.988281 C 0 8.960938 1.273438 9.941406 3.007812 10.535156 C 3.148438 10.582031 3.289062 10.628906 3.433594 10.667969 C 3.386719 10.855469 3.347656 11.039062 3.308594 11.230469 C 2.980469 12.964844 3.238281 14.339844 4.054688 14.8125 C 4.898438 15.300781 6.320312 14.800781 7.699219 13.589844 C 7.808594 13.492188 7.917969 13.394531 8.027344 13.289062 C 8.164062 13.421875 8.308594 13.550781 8.453125 13.675781 C 9.789062 14.824219 11.113281 15.289062 11.929688 14.820312 C 12.773438 14.332031 13.046875 12.851562 12.691406 11.054688 C 12.664062 10.914062 12.632812 10.773438 12.597656 10.632812 C 12.695312 10.601562 12.792969 10.570312 12.890625 10.539062 C 14.695312 9.945312 16 8.976562 16 7.988281 C 16 7.039062 14.769531 6.121094 13.070312 5.539062 Z M 8.839844 2.882812 C 10.003906 1.871094 11.085938 1.476562 11.582031 1.757812 C 12.109375 2.0625 12.3125 3.289062 11.980469 4.898438 C 11.960938 5.003906 11.9375 5.105469 11.910156 5.210938 C 11.214844 5.054688 10.511719 4.941406 9.804688 4.878906 C 9.398438 4.296875 8.957031 3.742188 8.476562 3.21875 C 8.597656 3.101562 8.714844 2.992188 8.839844 2.882812 Z M 5.226562 9.609375 C 5.382812 9.882812 5.546875 10.152344 5.71875 10.417969 C 5.230469 10.367188 4.746094 10.289062 4.269531 10.183594 C 4.40625 9.734375 4.578125 9.269531 4.777344 8.792969 C 4.921875 9.070312 5.070312 9.339844 5.226562 9.609375 Z M 4.277344 5.851562 C 4.726562 5.75 5.207031 5.667969 5.703125 5.605469 C 5.539062 5.867188 5.375 6.132812 5.222656 6.398438 C 5.070312 6.664062 4.917969 6.9375 4.777344 7.210938 C 4.582031 6.746094 4.414062 6.289062 4.277344 5.851562 Z M 5.132812 8.003906 C 5.339844 7.570312 5.566406 7.148438 5.804688 6.734375 C 6.039062 6.320312 6.296875 5.914062 6.566406 5.519531 C 7.035156 5.484375 7.511719 5.464844 8 5.464844 C 8.488281 5.464844 8.96875 5.484375 9.433594 5.519531 C 9.699219 5.914062 9.953125 6.316406 10.195312 6.726562 C 10.433594 7.140625 10.660156 7.5625 10.871094 7.992188 C 10.664062 8.421875 10.4375 8.847656 10.195312 9.265625 C 9.960938 9.679688 9.707031 10.085938 9.441406 10.484375 C 8.976562 10.519531 8.492188 10.535156 8 10.535156 C 7.507812 10.535156 7.035156 10.519531 6.574219 10.492188 C 6.304688 10.09375 6.046875 9.6875 5.804688 9.273438 C 5.566406 8.855469 5.34375 8.433594 5.132812 8.003906 Z M 10.777344 9.601562 C 10.9375 9.328125 11.085938 9.050781 11.234375 8.769531 C 11.433594 9.222656 11.609375 9.679688 11.761719 10.152344 C 11.277344 10.261719 10.789062 10.347656 10.292969 10.402344 C 10.460938 10.140625 10.621094 9.871094 10.777344 9.601562 Z M 11.226562 7.210938 C 11.082031 6.9375 10.929688 6.664062 10.773438 6.394531 C 10.621094 6.128906 10.460938 5.867188 10.296875 5.605469 C 10.800781 5.667969 11.28125 5.753906 11.730469 5.855469 C 11.585938 6.320312 11.417969 6.769531 11.226562 7.210938 Z M 8.007812 3.695312 C 8.335938 4.054688 8.644531 4.429688 8.929688 4.816406 C 8.3125 4.789062 7.691406 4.789062 7.070312 4.816406 C 7.378906 4.414062 7.695312 4.039062 8.007812 3.695312 Z M 4.382812 1.78125 C 4.90625 1.476562 6.070312 1.914062 7.300781 3 C 7.378906 3.070312 7.457031 3.144531 7.539062 3.21875 C 7.054688 3.742188 6.605469 4.296875 6.195312 4.878906 C 5.492188 4.941406 4.789062 5.050781 4.097656 5.203125 C 4.054688 5.042969 4.023438 4.882812 3.988281 4.71875 C 3.695312 3.207031 3.886719 2.066406 4.382812 1.78125 Z M 3.617188 10.019531 C 3.484375 9.980469 3.355469 9.941406 3.226562 9.898438 C 2.5625 9.6875 1.804688 9.355469 1.257812 8.921875 C 0.945312 8.703125 0.730469 8.367188 0.671875 7.988281 C 0.671875 7.414062 1.660156 6.683594 3.085938 6.1875 C 3.261719 6.125 3.445312 6.070312 3.625 6.015625 C 3.835938 6.695312 4.09375 7.359375 4.390625 8.003906 C 4.089844 8.65625 3.832031 9.332031 3.617188 10.019531 Z M 7.257812 13.082031 C 6.742188 13.554688 6.148438 13.929688 5.496094 14.183594 C 5.148438 14.351562 4.75 14.367188 4.394531 14.226562 C 3.898438 13.9375 3.691406 12.835938 3.972656 11.351562 C 4.007812 11.175781 4.042969 11 4.085938 10.828125 C 4.789062 10.976562 5.492188 11.082031 6.210938 11.132812 C 6.621094 11.71875 7.074219 12.277344 7.558594 12.804688 C 7.460938 12.898438 7.359375 12.992188 7.257812 13.082031 Z M 8.023438 12.320312 C 7.707031 11.976562 7.386719 11.597656 7.078125 11.1875 C 7.378906 11.199219 7.6875 11.207031 8 11.207031 C 8.320312 11.207031 8.636719 11.199219 8.949219 11.183594 C 8.664062 11.582031 8.351562 11.960938 8.023438 12.320312 Z M 12.109375 13.257812 C 12.082031 13.640625 11.894531 13.996094 11.59375 14.238281 C 11.097656 14.523438 10.039062 14.148438 8.894531 13.167969 C 8.761719 13.054688 8.632812 12.933594 8.496094 12.808594 C 8.976562 12.28125 9.414062 11.722656 9.816406 11.132812 C 10.53125 11.074219 11.242188 10.964844 11.945312 10.804688 C 11.976562 10.933594 12.007812 11.0625 12.03125 11.1875 C 12.183594 11.863281 12.210938 12.566406 12.109375 13.257812 Z M 12.679688 9.898438 C 12.589844 9.929688 12.503906 9.957031 12.414062 9.980469 C 12.195312 9.300781 11.925781 8.632812 11.617188 7.988281 C 11.914062 7.351562 12.167969 6.695312 12.382812 6.023438 C 12.542969 6.070312 12.699219 6.117188 12.851562 6.167969 C 14.304688 6.667969 15.328125 7.414062 15.328125 7.980469 C 15.328125 8.59375 14.238281 9.382812 12.679688 9.898438 Z M 8 9.429688 C 8.789062 9.429688 9.429688 8.789062 9.429688 8 C 9.429688 7.210938 8.789062 6.570312 8 6.570312 C 7.210938 6.570312 6.570312 7.210938 6.570312 8 C 6.570312 8.789062 7.210938 9.429688 8 9.429688 Z M 8 9.429688 "/>
</g>
</svg>
